<svg width="26" height="28" viewBox="0 0 26 28" fill="none" xmlns="http://www.w3.org/2000/svg">
<path d="M0 13.1765C0 5.89853 5.47721 0 12.2353 0C18.9934 0 24.4706 5.89853 24.4706 13.1765C24.4706 20.4544 18.9934 26.3529 12.2353 26.3529C5.47721 26.3529 0 20.4544 0 13.1765ZM17.7699 10.9015C18.2908 10.3404 18.2908 9.42426 17.7699 8.86324C17.2489 8.30221 16.3982 8.30221 15.8772 8.86324L10.7059 14.4324L8.59338 12.1574C8.07243 11.5963 7.22169 11.5963 6.70074 12.1574C6.17978 12.7184 6.17978 13.6346 6.70074 14.1956L9.75956 17.4897C10.2805 18.0507 11.1313 18.0507 11.6522 17.4897L17.7699 10.9015Z" fill="#61DAFB"/>
</svg>
