<svg width="85" height="68" viewBox="0 0 85 68" fill="none" xmlns="http://www.w3.org/2000/svg">
<path d="M71.1875 12.75H77.5625C79.3223 12.75 80.75 14.1844 80.75 15.9375V29.75C83.0968 29.75 85 31.6492 85 34C85 36.3468 83.0968 38.25 80.8695 38.25L80.75 52.0625C80.75 53.8289 79.3223 55.25 77.5625 55.25H71.1875C69.4211 55.25 68 53.8289 68 52.0625V15.9375C68 14.1844 69.4211 12.75 71.1875 12.75ZM24.4375 4.25H30.8125C32.5656 4.25 34 5.67773 34 7.4375V29.75H51V7.4375C51 5.67773 52.4211 4.25 54.1875 4.25H60.5625C62.3156 4.25 63.75 5.67773 63.75 7.4375V60.5625C63.75 62.3289 62.3156 63.75 60.5625 63.75H54.1875C52.4211 63.75 51 62.3289 51 60.5625V38.25H34V60.5625C34 62.3223 32.5723 63.75 30.8125 63.75H24.4375C22.6777 63.75 21.25 62.3223 21.25 60.5625V7.4375C21.25 5.67773 22.6711 4.25 24.4375 4.25ZM4.25 29.75V15.9375C4.25 14.1844 5.6711 12.75 7.4375 12.75H13.8125C15.5656 12.75 17 14.1844 17 15.9375V52.0625C17 53.8223 15.5723 55.25 13.8125 55.25H7.4375C5.67773 55.25 4.25 53.8223 4.25 52.0625V38.25C1.90321 38.25 0 36.3468 0 34C0 31.6492 1.89922 29.75 4.25 29.75Z" fill="#61DAFB"/>
</svg>
